<svg width="32" height="42" viewBox="0 0 32 42" fill="none" xmlns="http://www.w3.org/2000/svg">
<path d="M28 14H26V10C26 4.48 21.52 0 16 0C10.48 0 6 4.48 6 10V14H4C1.8 14 0 15.8 0 18V38C0 40.2 1.8 42 4 42H28C30.2 42 32 40.2 32 38V18C32 15.8 30.2 14 28 14ZM10 14V10C10 6.68 12.68 4 16 4C19.32 4 22 6.68 22 10V14H10Z" fill="#43A047"/>
<path d="M15.1758 29.3086H12.4922V31.5703H15.668V33H10.7695V24.4688H15.6562V25.9043H12.4922V27.9199H15.1758V29.3086Z" fill="white"/>
<path d="M19.4414 30.6562L20.877 24.4688H22.7988L20.3379 33H18.5449L16.1016 24.4688H18.0117L19.4414 30.6562Z" fill="white"/>
</svg>
