<svg width="32" height="42" viewBox="0 0 32 42" fill="none" xmlns="http://www.w3.org/2000/svg">
<path d="M24.5 14V15.5H26H28C29.3716 15.5 30.5 16.6284 30.5 18V38C30.5 39.3716 29.3716 40.5 28 40.5H4C2.62843 40.5 1.5 39.3716 1.5 38V18C1.5 16.6284 2.62843 15.5 4 15.5H6H7.5V14V10C7.5 5.30843 11.3084 1.5 16 1.5C20.6916 1.5 24.5 5.30843 24.5 10V14ZM8.5 14V15.5H10H22H23.5V14V10C23.5 5.85157 20.1484 2.5 16 2.5C11.8516 2.5 8.5 5.85157 8.5 10V14Z" fill="white" stroke="#43A047" stroke-width="3"/>
<path d="M8.89258 31.582V33H5.34766V31.582H8.89258ZM5.875 24.4688V33H4.1582V24.4688H5.875ZM14.793 31.582V33H11.084V31.582H14.793ZM11.6172 24.4688V33H9.90039V24.4688H11.6172ZM14.2949 27.9258V29.3027H11.084V27.9258H14.2949ZM14.7812 24.4688V25.8926H11.084V24.4688H14.7812ZM19.3105 24.4688V33H17.6055V24.4688H19.3105ZM21.4316 24.4688V25.8926H15.5254V24.4688H21.4316ZM23.8574 24V24.9023C23.8574 25.1562 23.8125 25.4199 23.7227 25.6934C23.6367 25.9629 23.5195 26.2188 23.3711 26.4609C23.2227 26.7031 23.0586 26.9102 22.8789 27.082L22.1289 26.6191C22.2422 26.3848 22.3418 26.1328 22.4277 25.8633C22.5176 25.5898 22.5625 25.2715 22.5625 24.9082V24H23.8574ZM26.5059 31.2891C26.5059 31.1797 26.4688 31.082 26.3945 30.9961C26.3203 30.9102 26.2031 30.8223 26.043 30.7324C25.8828 30.6387 25.6699 30.5352 25.4043 30.4219C25.1152 30.3047 24.8594 30.1836 24.6367 30.0586C24.4141 29.9336 24.2246 29.7949 24.0684 29.6426C23.916 29.4902 23.8008 29.3164 23.7227 29.1211C23.6445 28.9258 23.6055 28.7031 23.6055 28.4531C23.6055 28.1836 23.6543 27.9355 23.752 27.709C23.8535 27.4785 23.998 27.2773 24.1855 27.1055C24.373 26.9297 24.6016 26.793 24.8711 26.6953C25.1445 26.5938 25.4512 26.543 25.791 26.543C26.2676 26.543 26.6758 26.627 27.0156 26.7949C27.3594 26.959 27.623 27.1895 27.8066 27.4863C27.9902 27.7832 28.082 28.1289 28.082 28.5234H26.4414C26.4414 28.3828 26.4199 28.2578 26.377 28.1484C26.334 28.0352 26.2637 27.9473 26.166 27.8848C26.0723 27.8223 25.9453 27.791 25.7852 27.791C25.668 27.791 25.5625 27.8164 25.4688 27.8672C25.3789 27.918 25.3066 27.9863 25.252 28.0723C25.2012 28.1543 25.1758 28.252 25.1758 28.3652C25.1758 28.4512 25.1934 28.5273 25.2285 28.5938C25.2676 28.6602 25.3281 28.7246 25.4102 28.7871C25.4922 28.8496 25.6016 28.916 25.7383 28.9863C25.8789 29.0527 26.0508 29.127 26.2539 29.209C26.6758 29.3652 27.0215 29.5332 27.291 29.7129C27.5645 29.8926 27.7676 30.1035 27.9004 30.3457C28.0332 30.584 28.0996 30.8789 28.0996 31.2305C28.0996 31.5117 28.0449 31.7676 27.9355 31.998C27.8301 32.2285 27.6758 32.4277 27.4727 32.5957C27.2695 32.7637 27.0254 32.8926 26.7402 32.9824C26.459 33.0723 26.1445 33.1172 25.7969 33.1172C25.2852 33.1172 24.8535 33.0156 24.502 32.8125C24.1504 32.6094 23.8848 32.3496 23.7051 32.0332C23.5254 31.7129 23.4355 31.3809 23.4355 31.0371H24.9941C25.002 31.248 25.041 31.4141 25.1113 31.5352C25.1855 31.6523 25.2852 31.7344 25.4102 31.7812C25.5352 31.8281 25.6738 31.8516 25.8262 31.8516C25.9785 31.8516 26.1035 31.832 26.2012 31.793C26.3027 31.75 26.3789 31.6855 26.4297 31.5996C26.4805 31.5098 26.5059 31.4062 26.5059 31.2891Z" fill="#43A047"/>
</svg>
