<svg width="37" height="45" viewBox="0 0 37 45" fill="none" xmlns="http://www.w3.org/2000/svg">
<g opacity="0.75">
<path d="M27.5 14V15.5H29H31C32.3716 15.5 33.5 16.6284 33.5 18V38C33.5 39.3716 32.3716 40.5 31 40.5H7C5.62843 40.5 4.5 39.3716 4.5 38V18C4.5 16.6284 5.62843 15.5 7 15.5H9H10.5V14V10C10.5 5.30843 14.3084 1.5 19 1.5C23.6916 1.5 27.5 5.30843 27.5 10V14ZM11.5 14V15.5H13H25H26.5V14V10C26.5 5.85157 23.1484 2.5 19 2.5C14.8516 2.5 11.5 5.85157 11.5 10V14Z" fill="white" stroke="#B71C1C" stroke-width="3"/>
<path d="M18.9883 33H17.2656L14.7461 27.4043V33H13.0234V24.4688H14.7461L17.2715 30.0703V24.4688H18.9883V33ZM20.0957 29.625C20.0957 28.6641 20.3223 27.9102 20.7754 27.3633C21.2285 26.8164 21.8555 26.543 22.6562 26.543C23.4648 26.543 24.0957 26.8164 24.5488 27.3633C25.002 27.9102 25.2285 28.668 25.2285 29.6367V30.041C25.2285 31.0059 25.0039 31.7598 24.5547 32.3027C24.1055 32.8457 23.4766 33.1172 22.668 33.1172C21.8555 33.1172 21.2227 32.8457 20.7695 32.3027C20.3203 31.7559 20.0957 30.998 20.0957 30.0293V29.625ZM21.7598 30.041C21.7598 31.1738 22.0625 31.7402 22.668 31.7402C23.2266 31.7402 23.5273 31.2676 23.5703 30.3223L23.5762 29.625C23.5762 29.0469 23.4961 28.6191 23.3359 28.3418C23.1758 28.0605 22.9492 27.9199 22.6562 27.9199C22.375 27.9199 22.1543 28.0605 21.9941 28.3418C21.8379 28.6191 21.7598 29.0469 21.7598 29.625V30.041Z" fill="#43A047"/>
<line x1="1.98937" y1="43.8916" x2="35.9894" y2="12.8916" stroke="#B71C1C" stroke-width="3"/>
</g>
</svg>
